<svg xmlns="http://www.w3.org/2000/svg" width="22" height="22" viewBox="0 0 22 22"><g><g><path fill="#fff" d="M3.66 7.334c0-4.041 3.292-7.33 7.339-7.33a7.36 7.36 0 0 1 4 1.185.915.915 0 1 1-1.006 1.532 5.447 5.447 0 0 0-2.994-.884 5.507 5.507 0 0 0-5.504 5.497c0 4.932 1.8 7.33 5.504 7.33 3.703 0 5.504-2.398 5.504-7.33 0-.692-.127-1.368-.378-2.007a.918.918 0 0 1 1.707-.67c.335.854.506 1.755.506 2.677 0 4.05-1.187 6.349-2.713 7.631 3.163 1.005 5.678 4.26 6.31 5.756a.917.917 0 0 1-1.691.712c-.402-.954-1.934-3-3.867-4.136-.206.643-.66 1.234-1.33 1.71-.542.388-1.228.699-1.982.895a8.132 8.132 0 0 1-2.066.259c-2.672 0-4.844-1.207-5.378-2.865-1.934 1.136-3.465 3.183-3.867 4.137a.917.917 0 1 1-1.691-.712c.631-1.497 3.146-4.75 6.31-5.756-1.527-1.282-2.713-3.582-2.713-7.63zm10.09 9.162H8.248c-.306 0-.61.036-.91.102.116.838 1.644 1.73 3.662 1.73.56 0 1.099-.067 1.6-.198.54-.141 1.017-.353 1.38-.613.24-.17.626-.505.682-.919a4.235 4.235 0 0 0-.91-.102zm0-8.246a.917.917 0 1 1-1.833 0 .917.917 0 0 1 1.834 0zm-3.669 0a.917.917 0 1 1-1.833 0 .917.917 0 0 1 1.833 0z"/></g></g></svg>