<svg xmlns="http://www.w3.org/2000/svg" width="20" height="22" viewBox="0 0 20 22"><g><g><path fill="#fff" d="M2.893 21.997c-.495 0-.99-.128-1.442-.385a2.82 2.82 0 0 1-1.448-2.475V2.847A2.82 2.82 0 0 1 1.45.375a2.889 2.889 0 0 1 2.892.004l5.456 3.125c.46.264.617.846.35 1.3a.972.972 0 0 1-1.317.347L3.375 2.025a.957.957 0 0 0-.963-.002.934.934 0 0 0-.483.825v16.29c0 .496.338.742.483.824.145.083.53.248.963-.001l14.216-8.145a.932.932 0 0 0 .48-.823.933.933 0 0 0-.48-.824l-5.189-2.973a.946.946 0 0 1-.35-1.301.968.968 0 0 1 1.317-.346l5.189 2.973a2.823 2.823 0 0 1 1.44 2.47c0 1.03-.539 1.954-1.44 2.471L4.342 21.608a2.91 2.91 0 0 1-1.45.39z"/></g></g></svg>